<?xml version="1.0" standalone="no"?>
<!DOCTYPE svg PUBLIC "-//W3C//DTD SVG 20010904//EN"
 "http://www.w3.org/TR/2001/REC-SVG-20010904/DTD/svg10.dtd">
<svg version="1.0" xmlns="http://www.w3.org/2000/svg"
 width="200.000000pt" height="200.000000pt" viewBox="0 0 200.000000 200.000000"
 preserveAspectRatio="xMidYMid meet">
<metadata>
Created by potrace 1.14, written by Peter Selinger 2001-2017
</metadata>
<g transform="translate(0.000000,200.000000) scale(0.100000,-0.100000)"
fill="#000000" stroke="none">
<path d="M10 1780 c0 -167 1 -180 18 -180 17 0 18 12 18 160 l-1 160 960 0
960 0 -1 -912 c-1 -502 -2 -916 -3 -920 -1 -9 -1894 -9 -1906 0 -6 4 -10 149
-10 376 0 344 -1 369 -17 372 -17 2 -18 -22 -18 -395 l0 -398 995 0 995 0 0
958 0 959 -995 0 -995 0 0 -180z"/>
<path d="M1396 1550 c-63 -25 -129 -89 -156 -153 -28 -63 -25 -180 5 -242 25
-50 80 -105 130 -130 50 -24 161 -31 221 -15 55 16 137 86 166 144 30 58 35
159 13 227 -24 70 -101 149 -169 172 -65 22 -149 21 -210 -3z m204 -71 c112
-56 152 -186 92 -300 -75 -144 -272 -156 -366 -21 -41 57 -49 158 -18 218 59
115 183 159 292 103z"/>
<path d="M220 1280 l0 -280 30 0 30 0 0 105 0 105 103 0 c124 0 167 19 204 89
45 86 17 194 -62 238 -36 20 -54 23 -172 23 l-133 0 0 -280z m255 206 c85 -36
85 -166 0 -202 -20 -8 -68 -14 -115 -14 l-80 0 0 115 0 115 80 0 c47 0 95 -6
115 -14z"/>
<path d="M720 1280 l0 -280 35 0 35 0 0 110 0 111 78 -3 77 -3 59 -107 58
-108 39 0 c21 0 39 2 39 6 0 3 -27 52 -60 109 -33 57 -60 108 -60 112 0 4 16
18 36 31 43 28 64 74 64 140 0 57 -27 104 -79 139 -31 21 -45 23 -177 23
l-144 0 0 -280z m275 205 c62 -30 75 -116 26 -166 -29 -28 -32 -29 -130 -29
l-101 0 0 105 0 105 86 0 c57 0 97 -5 119 -15z"/>
<path d="M270 605 l0 -225 40 0 40 0 0 151 0 152 71 -89 c39 -49 75 -90 79
-92 5 -2 42 38 82 88 l73 92 3 -151 3 -151 39 0 40 0 0 225 0 225 -33 0 c-31
0 -41 -9 -117 -105 -63 -80 -86 -102 -96 -94 -7 5 -46 53 -86 105 -65 84 -76
94 -105 94 l-33 0 0 -225z"/>
<path d="M860 605 l0 -225 40 0 40 0 0 225 0 225 -40 0 -40 0 0 -225z"/>
<path d="M1000 790 l0 -40 65 0 65 0 0 -185 0 -185 40 0 40 0 0 185 0 185 65
0 65 0 0 40 0 40 -170 0 -170 0 0 -40z"/>
<path d="M1512 817 c-125 -46 -183 -196 -123 -320 80 -166 338 -169 422 -5 48
94 32 196 -41 269 -29 29 -63 52 -86 58 -50 14 -130 13 -172 -2z m176 -84 c53
-39 74 -83 70 -141 -7 -83 -61 -141 -139 -149 -99 -10 -187 79 -175 176 7 52
46 107 90 127 41 19 120 12 154 -13z"/>
</g>
</svg>
